<svg width="24" height="24" viewBox="0 0 24 24" fill="none" xmlns="http://www.w3.org/2000/svg">
<circle cx="11.7966" cy="11.7965" r="11.7965" fill="#22272F"/>
<path d="M17.6152 10.645C17.6152 11.105 17.5602 11.555 17.4502 11.995C17.3502 12.435 17.1902 12.835 16.9702 13.195C16.7502 13.545 16.4802 13.83 16.1602 14.05C15.8402 14.26 15.4602 14.365 15.0202 14.365C14.5602 14.365 14.1952 14.235 13.9252 13.975C13.6652 13.705 13.5052 13.4 13.4452 13.06H13.3702C13.1902 13.43 12.9252 13.74 12.5752 13.99C12.2252 14.24 11.7852 14.365 11.2552 14.365C10.4952 14.365 9.90524 14.11 9.48524 13.6C9.07524 13.09 8.87024 12.415 8.87024 11.575C8.87024 10.915 9.00024 10.335 9.26024 9.83502C9.52024 9.32502 9.88524 8.92502 10.3552 8.63502C10.8352 8.34502 11.4002 8.20002 12.0502 8.20002C12.4902 8.20002 12.9202 8.24002 13.3402 8.32002C13.7702 8.39002 14.1052 8.47002 14.3452 8.56002L14.1952 11.605C14.1852 11.785 14.1802 11.915 14.1802 11.995C14.1802 12.065 14.1802 12.115 14.1802 12.145C14.1802 12.665 14.2702 13.01 14.4502 13.18C14.6402 13.35 14.8602 13.435 15.1102 13.435C15.4202 13.435 15.6802 13.31 15.8902 13.06C16.1102 12.8 16.2752 12.46 16.3852 12.04C16.5052 11.61 16.5652 11.14 16.5652 10.63C16.5652 9.70002 16.3752 8.91502 15.9952 8.27502C15.6252 7.62502 15.1102 7.13002 14.4502 6.79002C13.8002 6.45002 13.0602 6.28002 12.2302 6.28002C11.3802 6.28002 10.6252 6.41502 9.96524 6.68502C9.30524 6.95502 8.75024 7.33502 8.30024 7.82502C7.86024 8.31502 7.52524 8.89502 7.29524 9.56502C7.06524 10.225 6.95024 10.955 6.95024 11.755C6.95024 12.735 7.12524 13.57 7.47524 14.26C7.82524 14.94 8.33524 15.46 9.00524 15.82C9.68524 16.17 10.5152 16.345 11.4952 16.345C12.1052 16.345 12.6852 16.275 13.2352 16.135C13.7952 16.005 14.2902 15.86 14.7202 15.7V16.72C14.2902 16.9 13.8052 17.045 13.2652 17.155C12.7352 17.275 12.1452 17.335 11.4952 17.335C10.3152 17.335 9.30524 17.115 8.46524 16.675C7.62524 16.235 6.98024 15.605 6.53024 14.785C6.09024 13.955 5.87024 12.96 5.87024 11.8C5.87024 10.87 6.01524 10.01 6.30524 9.22002C6.59524 8.42002 7.01524 7.73002 7.56524 7.15002C8.11524 6.56002 8.78024 6.10502 9.56024 5.78502C10.3502 5.45502 11.2402 5.29002 12.2302 5.29002C13.0102 5.29002 13.7252 5.41502 14.3752 5.66502C15.0352 5.90502 15.6052 6.26002 16.0852 6.73002C16.5752 7.19002 16.9502 7.75002 17.2102 8.41002C17.4802 9.07002 17.6152 9.81502 17.6152 10.645ZM10.0402 11.605C10.0402 12.245 10.1652 12.71 10.4152 13C10.6752 13.29 11.0202 13.435 11.4502 13.435C12.0102 13.435 12.4102 13.225 12.6502 12.805C12.9002 12.385 13.0452 11.84 13.0852 11.17L13.1752 9.29502C13.0452 9.25502 12.8802 9.22002 12.6802 9.19002C12.4802 9.16002 12.2752 9.14502 12.0652 9.14502C11.5752 9.14502 11.1802 9.26502 10.8802 9.50502C10.5802 9.74502 10.3652 10.055 10.2352 10.435C10.1052 10.805 10.0402 11.195 10.0402 11.605Z" fill="#6ED562"/>
</svg>
