<svg width="172" height="46" viewBox="0 0 172 46" fill="none" xmlns="http://www.w3.org/2000/svg">
<path d="M0 24.1027C0.0935297 15.5927 7.01879 8.74312 15.5293 8.74312H115.658L114.292 10.2543L100.259 37.7201L99.0177 39.2189L15.2859 39.2189C6.90979 39.2189 0.0935345 32.4783 0 24.1027Z" fill="#22272F"/>
<path d="M117.906 8.74619H156.374C164.79 8.74619 171.612 15.5684 171.612 23.9841C171.612 32.3997 164.79 39.222 156.374 39.222H100.794L102.043 37.7231L115.583 12.0435C116.213 10.8495 116.993 9.74126 117.906 8.74619Z" fill="#22272F"/>
<rect x="1.49866" y="10.2452" width="168.616" height="27.4782" rx="13.7391" fill="#6ED562"/>
<path d="M156.315 31.3252C154.783 31.3252 153.434 31.0254 152.268 30.4259C151.119 29.8264 150.228 29.0103 149.595 27.9778C148.963 26.9287 148.646 25.7379 148.646 24.4057C148.646 23.0567 148.954 21.866 149.57 20.8335C150.203 19.7843 151.061 18.9683 152.143 18.3855C153.226 17.7859 154.45 17.4862 155.815 17.4862C157.131 17.4862 158.313 17.7693 159.363 18.3355C160.428 18.8851 161.269 19.6844 161.886 20.7336C162.502 21.7661 162.81 23.0068 162.81 24.4556C162.81 24.6055 162.802 24.7804 162.785 24.9802C162.768 25.1634 162.752 25.3383 162.735 25.5048H151.819V23.2316H160.687L159.188 23.9061C159.188 23.2066 159.046 22.5988 158.763 22.0825C158.48 21.5663 158.089 21.1666 157.589 20.8835C157.089 20.5837 156.507 20.4338 155.84 20.4338C155.174 20.4338 154.583 20.5837 154.067 20.8835C153.567 21.1666 153.176 21.5746 152.893 22.1075C152.61 22.6238 152.468 23.2399 152.468 23.956V24.5556C152.468 25.2883 152.626 25.9378 152.943 26.504C153.276 27.0536 153.734 27.4782 154.317 27.778C154.916 28.0611 155.616 28.2027 156.415 28.2027C157.131 28.2027 157.756 28.0944 158.288 27.8779C158.838 27.6614 159.338 27.3367 159.787 26.9037L161.861 29.1519C161.244 29.8513 160.47 30.3926 159.537 30.7756C158.605 31.142 157.531 31.3252 156.315 31.3252Z" fill="#22272F"/>
<path d="M141.694 17.4862C142.76 17.4862 143.709 17.7027 144.542 18.1357C145.391 18.552 146.057 19.2015 146.54 20.0841C147.023 20.9501 147.265 22.0659 147.265 23.4314V31.1253H143.368V24.031C143.368 22.9485 143.126 22.1491 142.644 21.6329C142.177 21.1166 141.511 20.8585 140.645 20.8585C140.029 20.8585 139.471 20.9917 138.971 21.2582C138.488 21.508 138.105 21.8993 137.822 22.4322C137.556 22.9652 137.423 23.6479 137.423 24.4806V31.1253H133.526V17.686H137.248V21.4081L136.548 20.284C137.031 19.3847 137.722 18.6935 138.622 18.2106C139.521 17.7277 140.545 17.4862 141.694 17.4862Z" fill="#22272F"/>
<path d="M124.801 31.3252C123.368 31.3252 122.094 31.0254 120.979 30.4259C119.88 29.8264 119.005 29.0104 118.356 27.9779C117.723 26.9287 117.406 25.738 117.406 24.4057C117.406 23.0568 117.723 21.8661 118.356 20.8335C119.005 19.7844 119.88 18.9684 120.979 18.3855C122.094 17.786 123.368 17.4862 124.801 17.4862C126.216 17.4862 127.482 17.786 128.598 18.3855C129.713 18.9684 130.588 19.7761 131.221 20.8086C131.853 21.8411 132.17 23.0401 132.17 24.4057C132.17 25.738 131.853 26.9287 131.221 27.9779C130.588 29.0104 129.713 29.8264 128.598 30.4259C127.482 31.0254 126.216 31.3252 124.801 31.3252ZM124.801 28.1277C125.45 28.1277 126.033 27.9779 126.549 27.6781C127.065 27.3783 127.473 26.9537 127.773 26.4041C128.073 25.8379 128.223 25.1718 128.223 24.4057C128.223 23.623 128.073 22.9569 127.773 22.4073C127.473 21.8577 127.065 21.4331 126.549 21.1333C126.033 20.8335 125.45 20.6837 124.801 20.6837C124.151 20.6837 123.568 20.8335 123.052 21.1333C122.536 21.4331 122.119 21.8577 121.803 22.4073C121.503 22.9569 121.353 23.623 121.353 24.4057C121.353 25.1718 121.503 25.8379 121.803 26.4041C122.119 26.9537 122.536 27.3783 123.052 27.6781C123.568 27.9779 124.151 28.1277 124.801 28.1277Z" fill="#22272F"/>
<path d="M90.9371 31.0255V17.5862H94.6592V21.3831L94.1346 20.284C94.5343 19.3348 95.1754 18.6187 96.0581 18.1357C96.9407 17.6361 98.0148 17.3863 99.2805 17.3863V20.9835C99.114 20.9668 98.9641 20.9585 98.8309 20.9585C98.6976 20.9418 98.5561 20.9335 98.4062 20.9335C97.3404 20.9335 96.4744 21.2416 95.8083 21.8578C95.1588 22.4573 94.834 23.3982 94.834 24.6805V31.0255H90.9371Z" fill="#22272F"/>
<path d="M83.0969 31.2253C81.5648 31.2253 80.2158 30.9255 79.0501 30.326C77.901 29.7265 77.0101 28.9105 76.3772 27.878C75.7444 26.8288 75.428 25.6381 75.428 24.3058C75.428 22.9569 75.7361 21.7662 76.3522 20.7337C76.9851 19.6845 77.8427 18.8685 78.9252 18.2856C80.0077 17.6861 81.2317 17.3863 82.5973 17.3863C83.9129 17.3863 85.0953 17.6694 86.1445 18.2356C87.2103 18.7852 88.0513 19.5846 88.6675 20.6337C89.2836 21.6662 89.5917 22.9069 89.5917 24.3558C89.5917 24.5057 89.5834 24.6805 89.5667 24.8804C89.5501 25.0635 89.5334 25.2384 89.5168 25.4049H78.6005V23.1317H87.4684L85.9696 23.8062C85.9696 23.1068 85.828 22.4989 85.5449 21.9827C85.2618 21.4664 84.8705 21.0667 84.3709 20.7836C83.8713 20.4839 83.2884 20.334 82.6223 20.334C81.9561 20.334 81.3649 20.4839 80.8487 20.7836C80.3491 21.0667 79.9577 21.4747 79.6746 22.0076C79.3915 22.5239 79.2499 23.1401 79.2499 23.8562V24.4557C79.2499 25.1884 79.4081 25.8379 79.7246 26.4041C80.0576 26.9537 80.5156 27.3784 81.0985 27.6781C81.698 27.9612 82.3974 28.1028 83.1968 28.1028C83.9129 28.1028 84.5374 27.9945 85.0703 27.7781C85.6199 27.5616 86.1195 27.2368 86.5691 26.8038L88.6425 29.052C88.0263 29.7515 87.2519 30.2927 86.3193 30.6757C85.3867 31.0421 84.3126 31.2253 83.0969 31.2253Z" fill="#22272F"/>
<path d="M66.5046 36.0715C65.2389 36.0715 64.0149 35.9133 62.8325 35.5968C61.6668 35.2971 60.6926 34.8391 59.9099 34.2229L61.4586 31.4252C62.0248 31.8914 62.7409 32.2578 63.6069 32.5243C64.4895 32.8074 65.3555 32.9489 66.2048 32.9489C67.5871 32.9489 68.5863 32.6409 69.2025 32.0247C69.8353 31.4085 70.1517 30.4926 70.1517 29.2769V27.2535L70.4015 23.8811L70.3515 20.4839V17.5862H74.0486V28.7773C74.0486 31.2753 73.3991 33.1155 72.1002 34.2979C70.8012 35.4803 68.936 36.0715 66.5046 36.0715ZM65.9051 30.376C64.6561 30.376 63.5236 30.1095 62.5078 29.5766C61.5086 29.0271 60.7009 28.2693 60.0847 27.3034C59.4852 26.3209 59.1854 25.1801 59.1854 23.8811C59.1854 22.5655 59.4852 21.4248 60.0847 20.4589C60.7009 19.4763 61.5086 18.7186 62.5078 18.1857C63.5236 17.6528 64.6561 17.3863 65.9051 17.3863C67.0375 17.3863 68.0367 17.6195 68.9027 18.0858C69.7687 18.5354 70.4431 19.2432 70.9261 20.2091C71.409 21.1583 71.6505 22.3823 71.6505 23.8811C71.6505 25.3633 71.409 26.5873 70.9261 27.5532C70.4431 28.5025 69.7687 29.2102 68.9027 29.6765C68.0367 30.1428 67.0375 30.376 65.9051 30.376ZM66.6795 27.1785C67.3623 27.1785 67.9701 27.0453 68.503 26.7788C69.0359 26.4957 69.4523 26.1044 69.752 25.6048C70.0518 25.1052 70.2017 24.5306 70.2017 23.8811C70.2017 23.215 70.0518 22.6405 69.752 22.1575C69.4523 21.6579 69.0359 21.2749 68.503 21.0084C67.9701 20.7253 67.3623 20.5838 66.6795 20.5838C65.9967 20.5838 65.3888 20.7253 64.8559 21.0084C64.323 21.2749 63.8983 21.6579 63.5819 22.1575C63.2822 22.6405 63.1323 23.215 63.1323 23.8811C63.1323 24.5306 63.2822 25.1052 63.5819 25.6048C63.8983 26.1044 64.323 26.4957 64.8559 26.7788C65.3888 27.0453 65.9967 27.1785 66.6795 27.1785Z" fill="#22272F"/>
<path d="M50.8719 31.0255V17.5862H54.594V21.3831L54.0694 20.284C54.4691 19.3348 55.1102 18.6187 55.9929 18.1357C56.8755 17.6361 57.9497 17.3863 59.2153 17.3863V20.9835C59.0488 20.9668 58.8989 20.9585 58.7657 20.9585C58.6324 20.9418 58.4909 20.9335 58.341 20.9335C57.2752 20.9335 56.4092 21.2416 55.7431 21.8578C55.0936 22.4573 54.7689 23.3982 54.7689 24.6805V31.0255H50.8719Z" fill="#22272F"/>
<path d="M44.9464 31.0255V28.4026L44.6966 27.828V23.1317C44.6966 22.2991 44.4384 21.6496 43.9222 21.1833C43.4226 20.717 42.6482 20.4839 41.599 20.4839C40.8829 20.4839 40.1752 20.6004 39.4757 20.8336C38.7929 21.0501 38.2101 21.3498 37.7271 21.7329L36.3282 19.01C37.061 18.4938 37.9436 18.0941 38.9761 17.811C40.0086 17.5279 41.0578 17.3863 42.1236 17.3863C44.172 17.3863 45.7624 17.8693 46.8948 18.8352C48.0272 19.8011 48.5935 21.3082 48.5935 23.3566V31.0255H44.9464ZM40.8496 31.2253C39.8005 31.2253 38.9012 31.0504 38.1518 30.7007C37.4024 30.3344 36.8278 29.8431 36.4281 29.2269C36.0285 28.6107 35.8286 27.9196 35.8286 27.1535C35.8286 26.3542 36.0201 25.6547 36.4032 25.0552C36.8028 24.4557 37.4273 23.9894 38.2767 23.6563C39.126 23.3066 40.2334 23.1317 41.599 23.1317H45.1712V25.4049H42.0237C41.1077 25.4049 40.4749 25.5548 40.1252 25.8546C39.7921 26.1543 39.6256 26.529 39.6256 26.9787C39.6256 27.4783 39.8171 27.878 40.2001 28.1777C40.5998 28.4608 41.1411 28.6024 41.8238 28.6024C42.4733 28.6024 43.0562 28.4525 43.5725 28.1528C44.0887 27.8363 44.4634 27.3784 44.6966 26.7788L45.2961 28.5774C45.013 29.4434 44.4967 30.1012 43.7473 30.5508C42.9979 31.0005 42.032 31.2253 40.8496 31.2253Z" fill="#22272F"/>
<path d="M28.8492 17.3863C29.915 17.3863 30.8642 17.6028 31.6969 18.0357C32.5462 18.4521 33.2124 19.1016 33.6953 19.9842C34.1783 20.8502 34.4197 21.966 34.4197 23.3315V31.0254H30.5228V23.9311C30.5228 22.8486 30.2814 22.0492 29.7984 21.533C29.3321 21.0167 28.666 20.7586 27.8 20.7586C27.1838 20.7586 26.6259 20.8918 26.1263 21.1583C25.6434 21.4081 25.2604 21.7994 24.9772 22.3323C24.7108 22.8652 24.5776 23.548 24.5776 24.3807V31.0254H20.6807V12.4902H24.5776V21.3081L23.7033 20.184C24.1862 19.2848 24.8773 18.5936 25.7766 18.1107C26.6759 17.6277 27.7001 17.3863 28.8492 17.3863Z" fill="#22272F"/>
<path d="M13.7389 31.2253C12.2901 31.2253 10.9994 30.9339 9.86699 30.351C8.73456 29.7515 7.8436 28.9271 7.19412 27.878C6.56129 26.8288 6.24487 25.6381 6.24487 24.3058C6.24487 22.9569 6.56129 21.7662 7.19412 20.7337C7.8436 19.6845 8.73456 18.8685 9.86699 18.2856C10.9994 17.6861 12.2901 17.3863 13.7389 17.3863C15.1545 17.3863 16.3868 17.6861 17.436 18.2856C18.4851 18.8685 19.2595 19.7095 19.7591 20.8086L16.7365 22.4323C16.3868 21.7995 15.9455 21.3332 15.4126 21.0334C14.8963 20.7337 14.3301 20.5838 13.7139 20.5838C13.0478 20.5838 12.4483 20.7337 11.9154 21.0334C11.3825 21.3332 10.9578 21.7578 10.6414 22.3074C10.3416 22.857 10.1917 23.5231 10.1917 24.3058C10.1917 25.0885 10.3416 25.7547 10.6414 26.3042C10.9578 26.8538 11.3825 27.2784 11.9154 27.5782C12.4483 27.878 13.0478 28.0279 13.7139 28.0279C14.3301 28.0279 14.8963 27.8863 15.4126 27.6032C15.9455 27.3034 16.3868 26.8288 16.7365 26.1793L19.7591 27.828C19.2595 28.9105 18.4851 29.7515 17.436 30.351C16.3868 30.9339 15.1545 31.2253 13.7389 31.2253Z" fill="#22272F"/>
<g filter="url(#filter0_i_129_688)">
<path fill-rule="evenodd" clip-rule="evenodd" d="M114.659 21.9586L105.918 22.4946L122.698 2.21498L107.638 17.7877L100.66 25.5442L100.048 25.6996L100.564 25.6505L100.265 25.9823L110.799 25.041L95.924 43.7851L109.424 29.2387L114.914 23.1786L116.549 21.8427L116.1 21.8703L116.444 21.491L114.659 21.9586Z" fill="#22272F"/>
</g>
<defs>
<filter id="filter0_i_129_688" x="95.9241" y="2.21498" width="30.7744" height="45.5701" filterUnits="userSpaceOnUse" color-interpolation-filters="sRGB">
<feFlood flood-opacity="0" result="BackgroundImageFix"/>
<feBlend mode="normal" in="SourceGraphic" in2="BackgroundImageFix" result="shape"/>
<feColorMatrix in="SourceAlpha" type="matrix" values="0 0 0 0 0 0 0 0 0 0 0 0 0 0 0 0 0 0 127 0" result="hardAlpha"/>
<feOffset dx="4" dy="4"/>
<feGaussianBlur stdDeviation="5"/>
<feComposite in2="hardAlpha" operator="arithmetic" k2="-1" k3="1"/>
<feColorMatrix type="matrix" values="0 0 0 0 0 0 0 0 0 0 0 0 0 0 0 0 0 0 0.25 0"/>
<feBlend mode="normal" in2="shape" result="effect1_innerShadow_129_688"/>
</filter>
</defs>
</svg>
