<svg width="78" height="84" viewBox="0 0 78 84" fill="none" xmlns="http://www.w3.org/2000/svg">
<circle cx="35.3672" cy="35.3672" r="33.8672" stroke="#6ED562" stroke-width="3"/>
<circle cx="36.5665" cy="67.8151" r="10.1905" fill="#F4F4F6"/>
<path d="M42.0226 74.4255H30.9586V72.2655L36.8146 66.2895C38.2386 64.8655 38.9506 63.6335 38.9506 62.5935C38.9506 61.7935 38.7106 61.1615 38.2306 60.6975C37.7506 60.2335 37.1266 60.0015 36.3586 60.0015C34.9506 60.0015 33.9106 60.6975 33.2386 62.0895L30.9106 60.7215C31.4226 59.6175 32.1586 58.7775 33.1186 58.2015C34.0786 57.6095 35.1506 57.3135 36.3346 57.3135C37.8226 57.3135 39.0866 57.7775 40.1266 58.7055C41.1826 59.6495 41.7106 60.9135 41.7106 62.4975C41.7106 64.1935 40.7586 66.0175 38.8546 67.9695L35.0626 71.7615H42.0226V74.4255Z" fill="#6ED562"/>
<path d="M13.5117 18.0231L14.9614 20.9701L18.1731 21.4278L15.8625 23.7389L16.4267 26.983L13.5485 25.4644L10.6856 27.0114L11.218 23.762L8.88417 21.4738L12.0912 20.9843L13.5117 18.0231Z" fill="#6ED562"/>
<path d="M24.5117 12.0231L25.9614 14.9701L29.1731 15.4278L26.8625 17.7389L27.4267 20.983L24.5485 19.4644L21.6856 21.0114L22.218 17.762L19.8842 15.4738L23.0912 14.9843L24.5117 12.0231Z" fill="#6ED562"/>
<path d="M46.5117 12.0229L47.9614 14.9699L51.1731 15.4275L48.8625 17.7387L49.4267 20.9827L46.5485 19.4642L43.6856 21.0112L44.218 17.7617L41.8842 15.4736L45.0912 14.9841L46.5117 12.0229Z" fill="#6ED562"/>
<path d="M35.5117 8.02312L36.9614 10.9701L40.1731 11.4278L37.8625 13.7389L38.4267 16.983L35.5485 15.4644L32.6856 17.0114L33.218 13.762L30.8842 11.4738L34.0912 10.9843L35.5117 8.02312Z" fill="#6ED562"/>
<path d="M57.5117 18.0229L58.9614 20.9699L62.1731 21.4275L59.8625 23.7387L60.4267 26.9827L57.5485 25.4642L54.6856 27.0112L55.218 23.7617L52.8842 21.4736L56.0912 20.9841L57.5117 18.0229Z" fill="#6ED562"/>
<path d="M49.8598 38.0279C49.8441 37.463 49.791 36.9028 49.7097 36.3553L46.8391 35.8729L45.8665 33.1166L47.7787 30.8918C47.1987 29.9127 46.5091 29.0113 45.729 28.1989L43.1273 29.5255L40.7414 27.8783L40.9993 24.9331C40.0096 24.5094 38.9636 24.192 37.877 24L36.5246 26.6215L33.6383 26.6897L32.1577 24.1412C31.0492 24.3983 29.9891 24.7792 28.9931 25.2758L29.4184 28.2004L27.1247 29.9809L24.4527 28.8098C23.7194 29.6619 23.0799 30.6014 22.5546 31.6138L24.5887 33.7243L23.7694 36.5315L20.9285 37.1805C20.877 37.7613 20.8551 38.3548 20.8738 38.9578C20.8941 39.5085 20.9426 40.048 21.0161 40.5796L23.8867 41.0699L24.8514 43.8295L22.9267 46.0495C23.5083 47.0302 24.1963 47.9411 24.9765 48.7551L27.5844 47.438L29.9656 49.0915L29.6952 52.0384C30.7161 52.4763 31.7934 52.8064 32.9129 53.0016L34.2575 50.3737L37.1422 50.2928L38.6291 52.8381C39.7376 52.5763 40.7961 52.1891 41.7905 51.6908L41.3574 48.7678L43.6432 46.9778L46.3184 48.141C47.0517 47.2825 47.6896 46.3431 48.2118 45.3307L46.1667 43.2297L46.9751 40.4146L49.8175 39.7608C49.8629 39.1895 49.8832 38.6119 49.8629 38.0311L49.8598 38.0279ZM39.6547 43.4471C36.9624 45.848 32.8566 45.5909 30.48 42.8456C28.1176 40.1019 28.3802 35.9396 31.0804 33.5418C33.7697 31.1298 37.8786 31.398 40.2457 34.1337C42.6254 36.8758 42.3533 41.0461 39.6547 43.4486V43.4471Z" fill="#22272F"/>
<path d="M42.5133 32.1231C39.0486 28.1179 33.0306 27.7196 29.0828 31.2361C25.1396 34.7573 24.7487 40.8541 28.2228 44.8657C31.6876 48.8693 37.7008 49.2629 41.644 45.7464C45.5919 42.2299 45.9781 36.1252 42.5118 32.1231H42.5133ZM41.0296 45.0355C37.4726 48.2076 32.0487 47.8522 28.9233 44.2405C25.79 40.6224 26.1418 35.1223 29.6988 31.947C33.2589 28.7748 38.6874 29.1351 41.8129 32.7468C44.9399 36.3569 44.5897 41.8617 41.0296 45.0355Z" fill="#F4F4F6"/>
<path d="M41.6451 45.7463C42.9991 44.5403 43.9341 43.028 44.4391 41.4031C43.9122 41.8918 43.3744 42.352 42.8318 42.7884C42.3722 43.6136 41.7718 44.3753 41.0307 45.0354C39.4124 46.4795 37.4064 47.1904 35.4067 47.1983C34.7563 47.4744 34.1106 47.7252 33.4727 47.9521C36.287 48.5313 39.3249 47.8172 41.6467 45.7479L41.6451 45.7463Z" fill="#F4F4F6"/>
<g opacity="0.1">
<path d="M8.65813 60L4.86719 55.3678L37.2699 28.3645L42.8083 35.1319L66.0892 15.7305L69.8801 20.3623L42.0088 43.5896L36.4704 36.8221L8.65813 60Z" fill="#6B6969"/>
<path d="M71.6462 26.6497L77.867 9.81104L60.3047 12.7917L71.6462 26.6497Z" fill="#6B6969"/>
</g>
<path d="M11.5554 59.4809L7.3457 55.2333L37.5112 24.7931L43.7617 31.1007L65.6422 9.02124L69.8519 13.2692L43.7617 39.5963L37.5112 33.289L11.5554 59.4809Z" fill="#6ED562"/>
<path d="M72.2018 19.3587L76.8097 2L59.6074 6.64984L72.2018 19.3587Z" fill="#6ED562"/>
</svg>
