<svg width="103" height="93" viewBox="0 0 103 93" fill="none" xmlns="http://www.w3.org/2000/svg">
<circle cx="35.3672" cy="44.3672" r="33.8672" stroke="#6ED562" stroke-width="3"/>
<circle cx="36.5656" cy="76.8151" r="10.1906" fill="#F4F4F6"/>
<path d="M40.3105 68.9775L36.9025 73.4895C38.1505 73.7775 39.1425 74.3535 39.8785 75.2175C40.6305 76.0655 41.0065 77.1055 41.0065 78.3375C41.0065 80.0175 40.4385 81.3375 39.3025 82.2975C38.1825 83.2575 36.7905 83.7375 35.1265 83.7375C33.8145 83.7375 32.6545 83.4415 31.6465 82.8495C30.6385 82.2415 29.9185 81.3775 29.4865 80.2575L31.8385 78.8895C32.3345 80.3295 33.4305 81.0495 35.1265 81.0495C36.0865 81.0495 36.8465 80.8095 37.4065 80.3295C37.9665 79.8335 38.2465 79.1695 38.2465 78.3375C38.2465 77.5055 37.9665 76.8495 37.4065 76.3695C36.8465 75.8895 36.0865 75.6495 35.1265 75.6495H34.5025L33.3985 73.9935L37.0225 69.2175H29.9905V66.6255H40.3105V68.9775Z" fill="#6ED562"/>
<rect x="4.19649" y="14.4636" width="31.0256" height="54.6154" rx="4" transform="rotate(-25.045 4.19649 14.4636)" fill="#F4F4F6" stroke="#22272F" stroke-width="2"/>
<path d="M30.095 37.0702L20.182 39.7264C19.4596 39.92 18.7881 39.2334 18.9661 38.484L24.8908 13.5306C25.144 12.4635 26.6361 12.5523 26.8109 13.6445L28.9157 26.8131L38.8287 24.157C39.5511 23.9634 40.2226 24.65 40.0446 25.3993L34.1197 50.3522C33.8666 51.4193 32.3744 51.3305 32.1996 50.2383L30.095 37.0702Z" fill="#6ED562"/>
<rect x="32.8672" y="4" width="70" height="23" rx="5" fill="white"/>
<path d="M40.8668 34.6239L48.8398 26H40.8668V34.6239Z" fill="white"/>
<path d="M90.9122 21.092L91.4672 20.9H91.6472V23H91.4372V21.131L90.9662 21.272L90.9122 21.092ZM91.9317 21.092L92.4867 20.9H92.6667V23H92.4567V21.131L91.9857 21.272L91.9317 21.092ZM93.4163 21.635C93.4163 21.681 93.4003 21.72 93.3683 21.752C93.3363 21.784 93.2973 21.8 93.2513 21.8C93.2053 21.8 93.1663 21.784 93.1343 21.752C93.1023 21.72 93.0863 21.681 93.0863 21.635C93.0863 21.589 93.1023 21.55 93.1343 21.518C93.1663 21.486 93.2053 21.47 93.2513 21.47C93.2973 21.47 93.3363 21.486 93.3683 21.518C93.4003 21.55 93.4163 21.589 93.4163 21.635ZM93.4163 22.865C93.4163 22.911 93.4003 22.95 93.3683 22.982C93.3363 23.014 93.2973 23.03 93.2513 23.03C93.2053 23.03 93.1663 23.014 93.1343 22.982C93.1023 22.95 93.0863 22.911 93.0863 22.865C93.0863 22.819 93.1023 22.78 93.1343 22.748C93.1663 22.716 93.2053 22.7 93.2513 22.7C93.2973 22.7 93.3363 22.716 93.3683 22.748C93.4003 22.78 93.4163 22.819 93.4163 22.865ZM95.1277 22.742C94.9897 22.938 94.7947 23.036 94.5427 23.036C94.2927 23.036 94.0967 22.938 93.9547 22.742C93.8167 22.544 93.7477 22.28 93.7477 21.95C93.7477 21.618 93.8167 21.355 93.9547 21.161C94.0967 20.963 94.2927 20.864 94.5427 20.864C94.7947 20.864 94.9897 20.963 95.1277 21.161C95.2677 21.355 95.3377 21.618 95.3377 21.95C95.3377 22.282 95.2677 22.546 95.1277 22.742ZM94.1107 22.601C94.2167 22.755 94.3607 22.832 94.5427 22.832C94.7267 22.832 94.8697 22.755 94.9717 22.601C95.0757 22.449 95.1277 22.232 95.1277 21.95C95.1277 21.668 95.0757 21.451 94.9717 21.299C94.8697 21.145 94.7267 21.068 94.5427 21.068C94.3607 21.068 94.2167 21.145 94.1107 21.299C94.0087 21.453 93.9577 21.67 93.9577 21.95C93.9577 22.23 94.0087 22.447 94.1107 22.601ZM97.0173 22.742C96.8793 22.938 96.6843 23.036 96.4323 23.036C96.1823 23.036 95.9863 22.938 95.8443 22.742C95.7063 22.544 95.6373 22.28 95.6373 21.95C95.6373 21.618 95.7063 21.355 95.8443 21.161C95.9863 20.963 96.1823 20.864 96.4323 20.864C96.6843 20.864 96.8793 20.963 97.0173 21.161C97.1573 21.355 97.2273 21.618 97.2273 21.95C97.2273 22.282 97.1573 22.546 97.0173 22.742ZM96.0003 22.601C96.1063 22.755 96.2503 22.832 96.4323 22.832C96.6163 22.832 96.7593 22.755 96.8613 22.601C96.9653 22.449 97.0173 22.232 97.0173 21.95C97.0173 21.668 96.9653 21.451 96.8613 21.299C96.7593 21.145 96.6163 21.068 96.4323 21.068C96.2503 21.068 96.1063 21.145 96.0003 21.299C95.8983 21.453 95.8473 21.67 95.8473 21.95C95.8473 22.23 95.8983 22.447 96.0003 22.601Z" fill="#B1B1B1"/>
<path d="M50.1872 16.2V18.736H50.4872V19.536H50.2072V19H48.2072V19.536H47.9272V18.736H48.1552C48.3392 18.52 48.4312 18.1867 48.4312 17.736V16.2H50.1872ZM48.4872 18.736H49.9072V16.464H48.7112V17.744C48.7112 18.184 48.6365 18.5147 48.4872 18.736ZM52.5068 18.748C52.3014 18.948 52.0534 19.048 51.7628 19.048C51.4668 19.048 51.2174 18.948 51.0148 18.748C50.8121 18.5453 50.7108 18.296 50.7108 18C50.7108 17.704 50.8121 17.456 51.0148 17.256C51.2174 17.0533 51.4668 16.952 51.7628 16.952C52.0561 16.952 52.3041 17.0533 52.5068 17.256C52.7121 17.456 52.8148 17.704 52.8148 18C52.8148 18.2933 52.7121 18.5427 52.5068 18.748ZM51.2028 18.564C51.3548 18.716 51.5414 18.792 51.7628 18.792C51.9841 18.792 52.1708 18.716 52.3228 18.564C52.4748 18.4067 52.5508 18.2187 52.5508 18C52.5508 17.7787 52.4748 17.592 52.3228 17.44C52.1708 17.2853 51.9841 17.208 51.7628 17.208C51.5414 17.208 51.3548 17.2853 51.2028 17.44C51.0508 17.592 50.9748 17.7787 50.9748 18C50.9748 18.2187 51.0508 18.4067 51.2028 18.564ZM54.1886 19.048C53.8872 19.048 53.6366 18.948 53.4366 18.748C53.2366 18.5427 53.1366 18.2933 53.1366 18C53.1366 17.704 53.2366 17.456 53.4366 17.256C53.6366 17.0533 53.8872 16.952 54.1886 16.952C54.3859 16.952 54.5632 17 54.7206 17.096C54.8779 17.1893 54.9926 17.316 55.0646 17.476L54.8486 17.6C54.7952 17.48 54.7086 17.3853 54.5886 17.316C54.4712 17.244 54.3379 17.208 54.1886 17.208C53.9672 17.208 53.7806 17.2853 53.6286 17.44C53.4766 17.592 53.4006 17.7787 53.4006 18C53.4006 18.2187 53.4766 18.4067 53.6286 18.564C53.7806 18.716 53.9672 18.792 54.1886 18.792C54.3352 18.792 54.4672 18.7573 54.5846 18.688C54.7046 18.6187 54.7979 18.5227 54.8646 18.4L55.0846 18.528C55.0019 18.688 54.8806 18.8147 54.7206 18.908C54.5606 19.0013 54.3832 19.048 54.1886 19.048ZM55.1845 17H56.8645V17.256H56.1565V19H55.8925V17.256H55.1845V17ZM57.9783 18.676L58.6263 17H58.9062L58.0503 19.184C57.9703 19.3867 57.8583 19.5427 57.7143 19.652C57.5729 19.764 57.4156 19.8133 57.2423 19.8V19.552C57.4823 19.5813 57.6649 19.4427 57.7903 19.136L57.8423 19.012L56.9463 17H57.2263L57.9783 18.676ZM59.2253 17H60.9053V19H60.6413V17.256H59.4893V19H59.2253V17ZM62.8796 17.872V17H63.1436V19H62.8796V18.128H61.7276V19H61.4636V17H61.7276V17.872H62.8796ZM65.3779 18.748C65.1725 18.948 64.9245 19.048 64.6339 19.048C64.3379 19.048 64.0885 18.948 63.8859 18.748C63.6832 18.5453 63.5819 18.296 63.5819 18C63.5819 17.704 63.6832 17.456 63.8859 17.256C64.0885 17.0533 64.3379 16.952 64.6339 16.952C64.9272 16.952 65.1752 17.0533 65.3779 17.256C65.5832 17.456 65.6859 17.704 65.6859 18C65.6859 18.2933 65.5832 18.5427 65.3779 18.748ZM64.0739 18.564C64.2259 18.716 64.4125 18.792 64.6339 18.792C64.8552 18.792 65.0419 18.716 65.1939 18.564C65.3459 18.4067 65.4219 18.2187 65.4219 18C65.4219 17.7787 65.3459 17.592 65.1939 17.44C65.0419 17.2853 64.8552 17.208 64.6339 17.208C64.4125 17.208 64.2259 17.2853 64.0739 17.44C63.9219 17.592 63.8459 17.7787 63.8459 18C63.8459 18.2187 63.9219 18.4067 64.0739 18.564ZM68.8077 17V18.744H69.0877V19.536H68.8237V19H67.1917V19.536H66.9277V18.744H67.1717C67.3077 18.5627 67.3757 18.3107 67.3757 17.988V17H68.8077ZM67.4917 18.744H68.5437V17.256H67.6397V17.988C67.6397 18.2973 67.5903 18.5493 67.4917 18.744ZM69.695 17H71.127V19H70.863V17.256H69.959V18.148C69.959 18.4813 69.895 18.7107 69.767 18.836C69.6417 18.9613 69.4684 19.016 69.247 19V18.752C69.4017 18.768 69.515 18.7307 69.587 18.64C69.659 18.5493 69.695 18.3853 69.695 18.148V17ZM72.3143 17H73.1263V19H72.8623V18.232H72.5183L71.9023 19H71.5663L72.1983 18.224C72.0356 18.2 71.9023 18.1333 71.7983 18.024C71.6969 17.912 71.6463 17.7773 71.6463 17.62C71.6463 17.4413 71.7103 17.2933 71.8383 17.176C71.9716 17.0587 72.1303 17 72.3143 17ZM72.3143 17.984H72.8623V17.256H72.3143C72.1996 17.256 72.1036 17.2907 72.0263 17.36C71.9489 17.4267 71.9103 17.5133 71.9103 17.62C71.9103 17.7267 71.9489 17.8147 72.0263 17.884C72.1036 17.9507 72.1996 17.984 72.3143 17.984ZM75.9583 17.972C76.1769 18.052 76.2863 18.208 76.2863 18.44C76.2863 18.6053 76.2303 18.74 76.1183 18.844C76.0089 18.948 75.8556 19 75.6583 19H74.6863V17H75.5783C75.7703 17 75.9196 17.0493 76.0263 17.148C76.1356 17.2467 76.1903 17.376 76.1903 17.536C76.1903 17.736 76.1129 17.8813 75.9583 17.972ZM75.5783 17.256H74.9503V17.864H75.5783C75.8103 17.864 75.9263 17.76 75.9263 17.552C75.9263 17.4587 75.8956 17.3867 75.8343 17.336C75.7756 17.2827 75.6903 17.256 75.5783 17.256ZM74.9503 18.744H75.6583C75.7756 18.744 75.8649 18.716 75.9263 18.66C75.9903 18.604 76.0223 18.5253 76.0223 18.424C76.0223 18.328 75.9903 18.2533 75.9263 18.2C75.8649 18.1467 75.7756 18.12 75.6583 18.12H74.9503V18.744ZM78.4062 17.392V17H78.6703V19H78.4062V18.608C78.2223 18.9013 77.9529 19.048 77.5983 19.048C77.3129 19.048 77.0689 18.9467 76.8663 18.744C76.6663 18.5413 76.5663 18.2933 76.5663 18C76.5663 17.7067 76.6663 17.4587 76.8663 17.256C77.0689 17.0533 77.3129 16.952 77.5983 16.952C77.9529 16.952 78.2223 17.0987 78.4062 17.392ZM77.0583 18.564C77.2103 18.716 77.3969 18.792 77.6183 18.792C77.8396 18.792 78.0263 18.716 78.1783 18.564C78.3303 18.4067 78.4062 18.2187 78.4062 18C78.4062 17.7787 78.3303 17.592 78.1783 17.44C78.0263 17.2853 77.8396 17.208 77.6183 17.208C77.3969 17.208 77.2103 17.2853 77.0583 17.44C76.9063 17.592 76.8303 17.7787 76.8303 18C76.8303 18.2187 76.9063 18.4067 77.0583 18.564ZM80.1612 19.048C79.8599 19.048 79.6092 18.948 79.4092 18.748C79.2092 18.5427 79.1092 18.2933 79.1092 18C79.1092 17.704 79.2092 17.456 79.4092 17.256C79.6092 17.0533 79.8599 16.952 80.1612 16.952C80.3586 16.952 80.5359 17 80.6932 17.096C80.8506 17.1893 80.9652 17.316 81.0372 17.476L80.8212 17.6C80.7679 17.48 80.6812 17.3853 80.5612 17.316C80.4439 17.244 80.3106 17.208 80.1612 17.208C79.9399 17.208 79.7532 17.2853 79.6012 17.44C79.4492 17.592 79.3732 17.7787 79.3732 18C79.3732 18.2187 79.4492 18.4067 79.6012 18.564C79.7532 18.716 79.9399 18.792 80.1612 18.792C80.3079 18.792 80.4399 18.7573 80.5572 18.688C80.6772 18.6187 80.7706 18.5227 80.8372 18.4L81.0572 18.528C80.9746 18.688 80.8532 18.8147 80.6932 18.908C80.5332 19.0013 80.3559 19.048 80.1612 19.048ZM81.7163 18.24H81.5163L81.4563 17V16.2H81.7763V17L81.7163 18.24ZM81.8363 18.82C81.8363 18.8813 81.8149 18.9333 81.7723 18.976C81.7296 19.0187 81.6776 19.04 81.6163 19.04C81.5549 19.04 81.5029 19.0187 81.4603 18.976C81.4176 18.9333 81.3963 18.8813 81.3963 18.82C81.3963 18.7587 81.4176 18.7067 81.4603 18.664C81.5029 18.6213 81.5549 18.6 81.6163 18.6C81.6776 18.6 81.7296 18.6213 81.7723 18.664C81.8149 18.7067 81.8363 18.7587 81.8363 18.82Z" fill="#89909B"/>
<path d="M49.4712 13.052C49.0499 13.052 48.7005 12.9133 48.4232 12.636C48.1459 12.3533 48.0072 12.008 48.0072 11.6C48.0072 11.1893 48.1459 10.8453 48.4232 10.568C48.6979 10.288 49.0472 10.148 49.4712 10.148C49.7245 10.148 49.9579 10.208 50.1712 10.328C50.3872 10.448 50.5552 10.6107 50.6752 10.816L50.2752 11.048C50.2005 10.9093 50.0912 10.8 49.9472 10.72C49.8059 10.6373 49.6472 10.596 49.4712 10.596C49.1752 10.596 48.9325 10.6907 48.7432 10.88C48.5592 11.0667 48.4672 11.3067 48.4672 11.6C48.4672 11.8933 48.5592 12.1333 48.7432 12.32C48.9325 12.5093 49.1752 12.604 49.4712 12.604C49.6472 12.604 49.8072 12.564 49.9512 12.484C50.0952 12.4013 50.2032 12.2907 50.2752 12.152L50.6752 12.38C50.5605 12.5827 50.3939 12.7467 50.1752 12.872C49.9645 12.992 49.7299 13.052 49.4712 13.052ZM52.1009 10.948C52.3329 10.948 52.5182 11.0227 52.6569 11.172C52.7982 11.3187 52.8689 11.5187 52.8689 11.772V13H52.4369V11.816C52.4369 11.6667 52.3969 11.552 52.3169 11.472C52.2369 11.392 52.1275 11.352 51.9889 11.352C51.8315 11.352 51.7075 11.4013 51.6169 11.5C51.5262 11.596 51.4809 11.7387 51.4809 11.928V13H51.0489V10.2H51.4809V11.256C51.6142 11.0507 51.8209 10.948 52.1009 10.948ZM54.918 11.284V11H55.35V13H54.918V12.712C54.7554 12.9387 54.522 13.052 54.218 13.052C53.9434 13.052 53.7087 12.9507 53.514 12.748C53.3194 12.5453 53.222 12.296 53.222 12C53.222 11.704 53.3194 11.4547 53.514 11.252C53.7087 11.0493 53.9434 10.948 54.218 10.948C54.522 10.948 54.7554 11.06 54.918 11.284ZM53.834 12.46C53.954 12.58 54.1047 12.64 54.286 12.64C54.4674 12.64 54.618 12.58 54.738 12.46C54.858 12.3373 54.918 12.184 54.918 12C54.918 11.816 54.858 11.664 54.738 11.544C54.618 11.4213 54.4674 11.36 54.286 11.36C54.1047 11.36 53.954 11.4213 53.834 11.544C53.714 11.664 53.654 11.816 53.654 12C53.654 12.1813 53.714 12.3347 53.834 12.46ZM56.2856 11V11.336C56.3949 11.088 56.6002 10.964 56.9016 10.964V11.432C56.7389 11.4213 56.5949 11.4613 56.4696 11.552C56.3469 11.64 56.2856 11.7867 56.2856 11.992V13H55.8536V11H56.2856ZM58.719 11.296V11H59.143V12.908C59.143 13.212 59.043 13.4453 58.843 13.608C58.6457 13.7707 58.403 13.852 58.115 13.852C57.6537 13.852 57.3377 13.6907 57.167 13.368L57.539 13.152C57.643 13.3573 57.8377 13.46 58.123 13.46C58.3097 13.46 58.455 13.4107 58.559 13.312C58.6657 13.216 58.719 13.0813 58.719 12.908V12.664C58.5563 12.896 58.3243 13.012 58.023 13.012C57.743 13.012 57.5043 12.912 57.307 12.712C57.1123 12.5093 57.015 12.2653 57.015 11.98C57.015 11.692 57.1123 11.4493 57.307 11.252C57.5017 11.0493 57.7403 10.948 58.023 10.948C58.3243 10.948 58.5563 11.064 58.719 11.296ZM57.627 12.428C57.7497 12.548 57.9017 12.608 58.083 12.608C58.2643 12.608 58.415 12.548 58.535 12.428C58.6577 12.308 58.719 12.1587 58.719 11.98C58.719 11.8013 58.6577 11.652 58.535 11.532C58.415 11.412 58.2643 11.352 58.083 11.352C57.9017 11.352 57.7497 11.412 57.627 11.532C57.507 11.652 57.447 11.8013 57.447 11.98C57.447 12.1587 57.507 12.308 57.627 12.428ZM61.5785 12.184H59.9865C60.0185 12.3333 60.0905 12.4493 60.2025 12.532C60.3172 12.6147 60.4585 12.656 60.6265 12.656C60.8532 12.656 61.0252 12.5733 61.1425 12.408L61.4985 12.616C61.3039 12.9067 61.0119 13.052 60.6225 13.052C60.2999 13.052 60.0372 12.9533 59.8345 12.756C59.6345 12.556 59.5345 12.304 59.5345 12C59.5345 11.704 59.6332 11.4547 59.8305 11.252C60.0252 11.0493 60.2785 10.948 60.5905 10.948C60.8812 10.948 61.1212 11.0507 61.3105 11.256C61.4999 11.4613 61.5945 11.7107 61.5945 12.004C61.5945 12.0573 61.5892 12.1173 61.5785 12.184ZM59.9825 11.832H61.1585C61.1292 11.6747 61.0625 11.5533 60.9585 11.468C60.8572 11.3827 60.7332 11.34 60.5865 11.34C60.4265 11.34 60.2932 11.384 60.1865 11.472C60.0799 11.56 60.0119 11.68 59.9825 11.832ZM62.4067 11V11.336C62.516 11.088 62.7213 10.964 63.0227 10.964V11.432C62.86 11.4213 62.716 11.4613 62.5907 11.552C62.468 11.64 62.4067 11.7867 62.4067 11.992V13H61.9747V11H62.4067ZM66.7098 12.632C66.4298 12.912 66.0872 13.052 65.6818 13.052C65.2765 13.052 64.9325 12.912 64.6498 12.632C64.3698 12.3493 64.2298 12.0053 64.2298 11.6C64.2298 11.1947 64.3698 10.852 64.6498 10.572C64.9325 10.2893 65.2765 10.148 65.6818 10.148C66.0872 10.148 66.4298 10.2893 66.7098 10.572C66.9925 10.852 67.1338 11.1947 67.1338 11.6C67.1338 12.0053 66.9925 12.3493 66.7098 12.632ZM64.9738 12.32C65.1685 12.5093 65.4045 12.604 65.6818 12.604C65.9618 12.604 66.1965 12.5093 66.3858 12.32C66.5778 12.128 66.6738 11.888 66.6738 11.6C66.6738 11.312 66.5778 11.0733 66.3858 10.884C66.1965 10.692 65.9618 10.596 65.6818 10.596C65.4018 10.596 65.1658 10.692 64.9738 10.884C64.7845 11.0733 64.6898 11.312 64.6898 11.6C64.6898 11.8853 64.7845 12.1253 64.9738 12.32ZM68.5774 10.948C68.8094 10.948 68.9948 11.0227 69.1334 11.172C69.2748 11.3187 69.3454 11.5187 69.3454 11.772V13H68.9134V11.816C68.9134 11.6667 68.8734 11.552 68.7934 11.472C68.7134 11.392 68.6041 11.352 68.4654 11.352C68.3081 11.352 68.1841 11.4013 68.0934 11.5C68.0028 11.596 67.9574 11.7387 67.9574 11.928V13H67.5254V11H67.9574V11.256C68.0908 11.0507 68.2974 10.948 68.5774 10.948ZM71.7426 12.184H70.1506C70.1826 12.3333 70.2546 12.4493 70.3666 12.532C70.4813 12.6147 70.6226 12.656 70.7906 12.656C71.0173 12.656 71.1893 12.5733 71.3066 12.408L71.6626 12.616C71.4679 12.9067 71.1759 13.052 70.7866 13.052C70.4639 13.052 70.2013 12.9533 69.9986 12.756C69.7986 12.556 69.6986 12.304 69.6986 12C69.6986 11.704 69.7973 11.4547 69.9946 11.252C70.1893 11.0493 70.4426 10.948 70.7546 10.948C71.0453 10.948 71.2853 11.0507 71.4746 11.256C71.6639 11.4613 71.7586 11.7107 71.7586 12.004C71.7586 12.0573 71.7533 12.1173 71.7426 12.184ZM70.1466 11.832H71.3226C71.2933 11.6747 71.2266 11.5533 71.1226 11.468C71.0213 11.3827 70.8973 11.34 70.7506 11.34C70.5906 11.34 70.4573 11.384 70.3506 11.472C70.2439 11.56 70.1759 11.68 70.1466 11.832Z" fill="#22272F"/>
<circle cx="40.0263" cy="11.6476" r="3.90516" fill="#6ED562"/>
<path d="M42.3852 11.5725C42.2512 11.4073 42.0303 11.3932 42.0303 11.3932C42.0075 11.3876 41.9847 11.3841 41.9626 11.382V11.2442C41.9619 10.2704 41.1637 9.47803 40.1816 9.47803H39.8709C38.8896 9.47803 38.0907 10.2704 38.0907 11.2442V11.382C38.0686 11.3841 38.0458 11.3876 38.023 11.3932C38.023 11.3932 37.8013 11.408 37.6673 11.5725C37.5341 11.7377 37.5341 12.9758 37.6673 13.141C37.8013 13.3063 38.023 13.3203 38.023 13.3203C38.1021 13.34 38.1762 13.3386 38.2425 13.3203C38.4007 13.2767 38.5104 13.1361 38.5104 12.9428V11.7708C38.5104 11.6252 38.4484 11.5092 38.3501 11.4424V11.2442C38.3501 10.4117 39.0321 9.73465 39.8709 9.73465H40.1816C41.0205 9.73465 41.7025 10.4117 41.7025 11.2442V11.4424C41.6041 11.5092 41.5421 11.6252 41.5421 11.7708V12.9428C41.5421 13.0721 41.592 13.1776 41.6718 13.2465C41.6576 13.2803 41.6426 13.3161 41.6262 13.3562L41.6113 13.3913C41.54 13.5608 41.3226 13.7035 41.1373 13.7035H40.7347C40.7211 13.5074 40.5572 13.3527 40.3548 13.3527H39.9864C39.7754 13.3527 39.6044 13.5214 39.6044 13.7295C39.6044 13.9376 39.7754 14.1064 39.9864 14.1064H40.3548C40.5387 14.1064 40.6919 13.9784 40.729 13.8076H41.1373C41.3654 13.8076 41.622 13.6388 41.7089 13.4314L41.7239 13.3963C41.7381 13.3618 41.7509 13.3316 41.7631 13.3035C41.778 13.3098 41.7937 13.3161 41.8101 13.3203C41.8764 13.3386 41.9505 13.34 42.0296 13.3203C42.0296 13.3203 42.2512 13.3056 42.3845 13.141C42.5185 12.9758 42.5185 11.7377 42.3845 11.5725H42.3852Z" fill="#F8FFF7"/>
</svg>
