<svg width="70" height="92" viewBox="0 0 70 92" fill="none" xmlns="http://www.w3.org/2000/svg">
<circle cx="34.7949" cy="44.1542" r="33.2949" stroke="#6ED562" stroke-width="3"/>
<circle cx="35.9749" cy="76.0769" r="10.0256" fill="#F4F4F6"/>
<path d="M30.6422 67.6318L35.0582 66.0718H37.4582V82.8718H34.6982V69.0238L31.3142 69.9838L30.6422 67.6318Z" fill="#6ED562"/>
<rect x="19.8721" y="1" width="31.0256" height="54.6154" rx="4" fill="#F4F4F6" stroke="#22272F" stroke-width="2"/>
<path d="M27.8409 35.2047L28.7996 37.1536L30.9235 37.4562L29.3955 38.9846L29.7685 41.1298L27.8653 40.1256L25.9721 41.1486L26.3241 38.9998L24.7808 37.4867L26.9016 37.163L27.8409 35.2047Z" fill="#6ED562"/>
<path d="M35.336 35.2047L36.2947 37.1536L38.4186 37.4562L36.8906 38.9846L37.2637 41.1298L35.3604 40.1256L33.4672 41.1486L33.8192 38.9998L32.2759 37.4867L34.3967 37.163L35.336 35.2047Z" fill="#6ED562"/>
<path d="M42.8301 35.2047L43.7888 37.1536L45.9127 37.4562L44.3847 38.9846L44.7578 41.1298L42.8545 40.1256L40.9613 41.1486L41.3134 38.9998L39.77 37.4867L41.8908 37.163L42.8301 35.2047Z" fill="#6ED562"/>
<rect x="30.5527" y="7.61792" width="33.0256" height="20.0513" rx="3" transform="rotate(11.1236 30.5527 7.61792)" fill="#6ED562"/>
<rect x="28.0215" y="18.3694" width="33.3893" height="4.98805" transform="rotate(10.3922 28.0215 18.3694)" fill="#F4F4F6"/>
<path d="M36.4566 12.9441L37.035 12.8535L37.3299 12.9085L36.9451 14.973L36.6059 14.9097L36.9231 13.208L36.4853 13.2485L36.4566 12.9441ZM37.5539 13.1486L38.1323 13.0581L38.4272 13.1131L38.0424 15.1775L37.7032 15.1143L38.0204 13.4126L37.5826 13.453L37.5539 13.1486ZM38.6512 13.3532L39.2296 13.2626L39.5245 13.3176L39.1397 15.3821L38.8005 15.3188L39.1178 13.6171L38.6799 13.6576L38.6512 13.3532ZM39.7485 13.5577L40.3269 13.4672L40.6218 13.5222L40.237 15.5866L39.8979 15.5234L40.2151 13.8217L39.7772 13.8621L39.7485 13.5577ZM41.5831 13.8997L42.1615 13.8092L42.4565 13.8642L42.0716 15.9286L41.7325 15.8654L42.0497 14.1637L41.6118 14.2041L41.5831 13.8997ZM42.6805 14.1043L43.2588 14.0137L43.5538 14.0687L43.1689 16.1331L42.8298 16.0699L43.147 14.3682L42.7092 14.4087L42.6805 14.1043ZM43.7778 14.3088L44.3561 14.2183L44.6511 14.2733L44.2662 16.3377L43.9271 16.2745L44.2443 14.5728L43.8065 14.6132L43.7778 14.3088ZM44.8751 14.5134L45.4535 14.4228L45.7484 14.4778L45.3635 16.5422L45.0244 16.479L45.3416 14.7773L44.9038 14.8178L44.8751 14.5134ZM46.7097 14.8554L47.2881 14.7648L47.583 14.8198L47.1981 16.8842L46.859 16.821L47.1762 15.1193L46.7384 15.1598L46.7097 14.8554ZM47.807 15.0599L48.3854 14.9694L48.6803 15.0244L48.2955 17.0888L47.9563 17.0256L48.2735 15.3239L47.8357 15.3643L47.807 15.0599ZM48.9043 15.2645L49.4827 15.1739L49.7776 15.2289L49.3928 17.2933L49.0536 17.2301L49.3708 15.5284L48.933 15.5689L48.9043 15.2645ZM50.0016 15.469L50.58 15.3785L50.8749 15.4335L50.4901 17.4979L50.1509 17.4347L50.4681 15.733L50.0303 15.7734L50.0016 15.469ZM51.8362 15.811L52.4146 15.7205L52.7095 15.7754L52.3247 17.8399L51.9855 17.7767L52.3027 16.075L51.8649 16.1154L51.8362 15.811ZM52.9335 16.0156L53.5119 15.925L53.8068 15.98L53.422 18.0444L53.0828 17.9812L53.4 16.2795L52.9622 16.32L52.9335 16.0156ZM54.0308 16.2201L54.6092 16.1296L54.9041 16.1845L54.5193 18.249L54.1801 18.1858L54.4974 16.4841L54.0595 16.5245L54.0308 16.2201ZM55.1281 16.4247L55.7065 16.3341L56.0014 16.3891L55.6166 18.4535L55.2774 18.3903L55.5947 16.6886L55.1568 16.7291L55.1281 16.4247Z" fill="white"/>
</svg>
