<svg width="22" height="18" viewBox="0 0 22 18" fill="none" xmlns="http://www.w3.org/2000/svg">
<path d="M19.3798 11.3608L21.9346 5.25378C22.1716 4.68741 21.7355 4.07161 21.0975 4.07161H5.13061L4.20992 1.11302C4.00615 0.457776 3.36431 0 2.64959 0H0.679242C0.303871 0 0 0.29081 0 0.649459C0 1.00811 0.303871 1.29892 0.679242 1.29892H2.64959C2.76812 1.29892 2.87426 1.37491 2.90809 1.48324L6.93459 14.4253C7.13176 15.0588 7.7384 15.5076 8.42507 15.5368C8.11157 15.7934 7.91275 16.1742 7.91275 16.5999C7.91275 17.3729 8.56862 18 9.37711 18C10.1856 18 10.8415 17.3729 10.8415 16.5999C10.8415 16.1752 10.6432 15.795 10.3311 15.5381H15.5566C15.2442 15.795 15.0462 16.1752 15.0462 16.5999C15.0462 17.3729 15.7015 18 16.5105 18C17.3196 18 17.9746 17.3729 17.9746 16.5999C17.9746 16.1752 17.7766 15.795 17.4645 15.5381H19.2011C19.5765 15.5381 19.8803 15.2476 19.8803 14.8886C19.8803 14.5297 19.5765 14.2392 19.2011 14.2392H8.49547C8.37694 14.2392 8.2708 14.1635 8.2367 14.0549L7.6625 12.2082H18.0711C18.6478 12.2082 19.1662 11.8727 19.3801 11.3608H19.3798ZM11.0661 9.99483C11.0661 10.2128 10.8813 10.3898 10.6531 10.3898C10.4248 10.3898 10.24 10.2128 10.24 9.99483V6.42912C10.24 6.21088 10.4248 6.03418 10.6531 6.03418C10.7672 6.03418 10.8703 6.07836 10.9451 6.14987C11.0199 6.22139 11.0661 6.32 11.0661 6.42912V9.99483ZM15.6715 9.99483C15.6715 10.2128 15.4864 10.3898 15.2585 10.3898C15.0305 10.3898 14.8451 10.2128 14.8451 9.99483V6.42912C14.8451 6.21088 15.0302 6.03418 15.2585 6.03418C15.3726 6.03418 15.4757 6.07836 15.5505 6.14987C15.6253 6.22139 15.6715 6.32 15.6715 6.42912V9.99483Z" fill="#22272F"/>
</svg>
