<svg width="27" height="16" viewBox="0 0 27 16" fill="none" xmlns="http://www.w3.org/2000/svg">
<path d="M26.7497 4.25158L20.977 0.108672C20.5372 -0.206951 19.9564 0.212978 20.0869 0.751986L20.5875 2.81866L12.4644 2.84641C12.2337 2.84713 12.0469 3.04205 12.0469 3.28237V8.88773C12.0469 9.12841 11.8594 9.32369 11.628 9.32369H6.41213L6.9127 7.25701C7.04321 6.718 6.4625 6.29808 6.02267 6.6137L0.250288 10.7564C-0.0834295 10.9958 -0.0834295 11.5089 0.250288 11.7485L6.02302 15.8914C6.46284 16.207 7.04356 15.7871 6.91305 15.2481L6.41247 13.1814L15.1591 13.1881C15.3905 13.1881 15.5781 12.993 15.5781 12.7521V7.11253C15.5781 6.87185 15.7656 6.67657 15.997 6.67657H20.5877L20.0871 8.74325C19.9566 9.28226 20.5373 9.70219 20.9772 9.38656L26.7499 5.24366C27.0836 5.00424 27.0836 4.49117 26.7499 4.25158H26.7497Z" fill="#22272F"/>
</svg>
