<svg width="24" height="24" viewBox="0 0 24 24" fill="none" xmlns="http://www.w3.org/2000/svg">
<circle cx="11.7965" cy="11.7965" r="11.7965" fill="#22272F"/>
<path d="M11.3295 16.1437H12.0546C12.0546 16.1437 12.2733 16.1154 12.3852 15.9742C12.4888 15.8452 12.4846 15.602 12.4846 15.602C12.4846 15.602 12.47 14.4646 12.922 14.2976C13.3667 14.133 13.939 15.3969 14.5449 15.8833C15.0032 16.2505 15.3516 16.1707 15.3516 16.1707L16.9724 16.1437C16.9724 16.1437 17.8199 16.0823 17.4181 15.3035C17.3857 15.2397 17.1837 14.7275 16.2127 13.6748C15.1967 12.5718 15.3328 12.7512 16.557 10.8449C17.303 9.68416 17.6012 8.97544 17.507 8.67206C17.4181 8.38341 16.8698 8.45957 16.8698 8.45957L15.0461 8.47185C15.0461 8.47185 14.9111 8.45097 14.8106 8.52098C14.7123 8.58976 14.6495 8.74944 14.6495 8.74944C14.6495 8.74944 14.3607 9.64854 13.9757 10.4125C13.1637 12.024 12.8383 12.11 12.7054 12.0093C12.3967 11.7759 12.4742 11.0721 12.4742 10.5722C12.4742 9.00984 12.6772 8.35885 12.0787 8.19057C11.8799 8.13407 11.7344 8.09722 11.227 8.09108C10.5761 8.08249 10.0247 8.09354 9.71291 8.27164C9.50469 8.39078 9.3446 8.65486 9.44295 8.67083C9.56328 8.68925 9.83638 8.75681 9.98182 8.98773C10.1691 9.28497 10.1628 9.95315 10.1628 9.95315C10.1628 9.95315 10.2706 11.7919 9.91171 12.0203C9.66478 12.1776 9.32786 11.857 8.6038 10.3941C8.2334 9.64486 7.95193 8.817 7.95193 8.817C7.95193 8.817 7.89857 8.66346 7.80231 8.57994C7.68512 8.47922 7.52189 8.44851 7.52189 8.44851L5.78812 8.4608C5.78812 8.4608 5.52758 8.46939 5.43237 8.60205C5.34761 8.71996 5.42504 8.96316 5.42504 8.96316C5.42504 8.96316 6.78318 12.6738 8.31919 14.5445C9.72965 16.2591 11.3295 16.1474 11.3295 16.1474V16.1437Z" fill="#6ED562"/>
</svg>
