<svg width="24" height="24" viewBox="0 0 24 24" fill="none" xmlns="http://www.w3.org/2000/svg">
<circle cx="11.7966" cy="11.7965" r="11.7965" fill="#22272F"/>
<path fill-rule="evenodd" clip-rule="evenodd" d="M12.1856 8.5807C10.6274 8.49873 9.41133 9.58398 9.14317 11.2828C8.92109 12.6896 9.31479 14.4039 9.6516 14.4901C9.79437 14.5268 10.1381 14.2628 10.3882 14.0261C10.4352 13.9816 10.5064 13.9742 10.5614 14.0081C10.9512 14.2473 11.3925 14.4272 11.8791 14.4528C13.4789 14.537 14.8965 13.2803 14.9803 11.6742C15.0641 10.0682 13.7853 8.66502 12.1856 8.5807ZM9.57621 16.7364C9.51587 16.6935 9.4328 16.7051 9.38218 16.7594C8.70638 17.483 6.9769 17.9905 6.8976 17.003C6.8976 16.2292 6.72441 15.5772 6.53383 14.8594C6.30047 13.98 6.04077 13.0019 6.04077 11.5805C6.04077 8.19099 8.80997 5.6418 12.0934 5.6418C15.3768 5.6418 17.9512 8.31544 17.9512 11.6135C17.9512 14.9116 15.2948 17.5193 12.1246 17.5193C10.9998 17.5193 10.454 17.3602 9.57621 16.7364Z" fill="#6ED562"/>
</svg>
