<svg width="24" height="24" viewBox="0 0 24 24" fill="none" xmlns="http://www.w3.org/2000/svg">
<circle cx="11.7965" cy="11.7965" r="11.7965" fill="#22272F"/>
<path d="M6.05452 11.529C6.05452 11.529 10.8248 9.45514 12.4795 8.72586C13.1149 8.43339 15.2649 7.499 15.2649 7.499C15.2649 7.499 16.2556 7.08878 16.173 8.08394C16.1443 8.49416 15.9254 9.92233 15.7028 11.4683C15.3726 13.6561 15.0137 16.049 15.0137 16.049C15.0137 16.049 14.9598 16.7213 14.4896 16.8353C14.0194 16.953 13.2477 16.4289 13.1113 16.3111C13 16.2238 11.0438 14.9095 10.3259 14.2676C10.1321 14.0929 9.91312 13.7434 10.3546 13.3332C11.3453 12.3723 12.5334 11.1758 13.2477 10.4161C13.5779 10.0667 13.9081 9.25003 12.5298 10.2414C10.5736 11.6696 8.64248 13.0142 8.64248 13.0142C8.64248 13.0142 8.20098 13.3066 7.37542 13.0446C6.54986 12.7825 5.58431 12.433 5.58431 12.433C5.58431 12.433 4.92386 11.9962 6.05452 11.529Z" fill="#6ED562"/>
</svg>
